{
	"asset":{
		"generator":"Khronos glTF Blender I/O v3.6.27",
		"version":"2.0"
	},
	"scene":0,
	"scenes":[
		{
			"name":"Scene",
			"nodes":[
				0
			]
		}
	],
	"nodes":[
		{
			"mesh":0,
			"name":"Cube"
		}
	],
	"materials":[
		{
			"doubleSided":true,
			"name":"Brush",
			"pbrMetallicRoughness":{
				"baseColorFactor":[
					0,
					0.7403383851051331,
					0.8004578351974487,
					1
				],
				"metallicFactor":0,
				"roughnessFactor":0.5
			}
		},
		{
			"doubleSided":true,
			"name":"Pink",
			"pbrMetallicRoughness":{
				"baseColorFactor":[
					0.6145730018615723,
					0.07697717100381851,
					1,
					1
				],
				"metallicFactor":0,
				"roughnessFactor":0.5
			}
		},
		{
			"doubleSided":true,
			"name":"Pink.001",
			"pbrMetallicRoughness":{
				"baseColorFactor":[
					0.16080497205257416,
					0.01137319952249527,
					0.20187048614025116,
					1
				],
				"metallicFactor":0,
				"roughnessFactor":0.5
			}
		}
	],
	"meshes":[
		{
			"name":"Cube.001",
			"primitives":[
				{
					"attributes":{
						"POSITION":0,
						"NORMAL":1,
						"TEXCOORD_0":2
					},
					"indices":3,
					"material":0
				},
				{
					"attributes":{
						"POSITION":4,
						"NORMAL":5,
						"TEXCOORD_0":6
					},
					"indices":7,
					"material":1
				},
				{
					"attributes":{
						"POSITION":8,
						"NORMAL":9,
						"TEXCOORD_0":10
					},
					"indices":11,
					"material":2
				}
			]
		}
	],
	"accessors":[
		{
			"bufferView":0,
			"componentType":5126,
			"count":2171,
			"max":[
				2.401129961013794,
				9.954241752624512,
				0.8273948431015015
			],
			"min":[
				-2.401130199432373,
				-3.570645332336426,
				-0.8143401145935059
			],
			"type":"VEC3"
		},
		{
			"bufferView":1,
			"componentType":5126,
			"count":2171,
			"type":"VEC3"
		},
		{
			"bufferView":2,
			"componentType":5126,
			"count":2171,
			"type":"VEC2"
		},
		{
			"bufferView":3,
			"componentType":5123,
			"count":11520,
			"type":"SCALAR"
		},
		{
			"bufferView":4,
			"componentType":5126,
			"count":2018,
			"max":[
				2.379271984100342,
				9.923758506774902,
				0.8771848082542419
			],
			"min":[
				-2.379272222518921,
				-3.4451160430908203,
				0.21066123247146606
			],
			"type":"VEC3"
		},
		{
			"bufferView":5,
			"componentType":5126,
			"count":2018,
			"type":"VEC3"
		},
		{
			"bufferView":6,
			"componentType":5126,
			"count":2018,
			"type":"VEC2"
		},
		{
			"bufferView":7,
			"componentType":5123,
			"count":11172,
			"type":"SCALAR"
		},
		{
			"bufferView":8,
			"componentType":5126,
			"count":21168,
			"max":[
				2.037996530532837,
				9.875639915466309,
				2.345515012741089
			],
			"min":[
				-1.9924061298370361,
				2.832689046859741,
				0.21541321277618408
			],
			"type":"VEC3"
		},
		{
			"bufferView":9,
			"componentType":5126,
			"count":21168,
			"type":"VEC3"
		},
		{
			"bufferView":10,
			"componentType":5126,
			"count":21168,
			"type":"VEC2"
		},
		{
			"bufferView":11,
			"componentType":5123,
			"count":30576,
			"type":"SCALAR"
		}
	],
	"bufferViews":[
		{
			"buffer":0,
			"byteLength":26052,
			"byteOffset":0,
			"target":34962
		},
		{
			"buffer":0,
			"byteLength":26052,
			"byteOffset":26052,
			"target":34962
		},
		{
			"buffer":0,
			"byteLength":17368,
			"byteOffset":52104,
			"target":34962
		},
		{
			"buffer":0,
			"byteLength":23040,
			"byteOffset":69472,
			"target":34963
		},
		{
			"buffer":0,
			"byteLength":24216,
			"byteOffset":92512,
			"target":34962
		},
		{
			"buffer":0,
			"byteLength":24216,
			"byteOffset":116728,
			"target":34962
		},
		{
			"buffer":0,
			"byteLength":16144,
			"byteOffset":140944,
			"target":34962
		},
		{
			"buffer":0,
			"byteLength":22344,
			"byteOffset":157088,
			"target":34963
		},
		{
			"buffer":0,
			"byteLength":254016,
			"byteOffset":179432,
			"target":34962
		},
		{
			"buffer":0,
			"byteLength":254016,
			"byteOffset":433448,
			"target":34962
		},
		{
			"buffer":0,
			"byteLength":169344,
			"byteOffset":687464,
			"target":34962
		},
		{
			"buffer":0,
			"byteLength":61152,
			"byteOffset":856808,
			"target":34963
		}
	],
	"buffers":[
		{
			"byteLength":917960,
			"uri":"data:application/octet-stream;base64,"
		}
	]
}
